<?xml version="1.0" encoding="UTF-8"?>
<svg width="100px" height="123px" viewBox="0 0 100 123" version="1.1" xmlns="http://www.w3.org/2000/svg" xmlns:xlink="http://www.w3.org/1999/xlink">
    <!-- Generator: Sketch 45.2 (43514) - http://www.bohemiancoding.com/sketch -->
    <title>Oval</title>
    <desc>Created with Sketch.</desc>
    <defs></defs>
    <g id="Page-1" stroke="none" stroke-width="1" fill="none" fill-rule="evenodd">
        <g id="logo-green" fill-rule="nonzero" fill="#000000">
            <path d="M45.9445434,67.8447895 C46.6278405,66.9175127 47.5163717,66.0396736 48.8067477,64.9839507 C49.0746013,64.7667722 52.3568484,62.1936492 52.9964685,61.6897951 C54.9956689,60.1144363 56.2972632,59.0704636 56.827058,58.6111174 C60.8249841,55.1448087 62.2156537,52.5253108 62.2156537,48.5229339 C62.2156537,41.5367394 57.4227849,37.0417251 49.5226109,37.0417251 C44.5608526,37.0417251 40.9627901,38.704807 38.4767944,41.874088 C37.6719048,42.9002046 37.0272461,44.0368531 36.5508439,45.2398147 C36.4003612,45.619798 36.2770693,45.9814266 36.1827777,46.3122057 C36.1548565,46.4101545 35.9297223,47.4963572 35.5073749,49.5708138 L24.075953,46.3799011 L24.6774327,43.7552622 C24.7477558,43.4507429 24.7477558,43.4507429 24.7979267,43.2577009 C24.8494397,43.0650288 24.9099589,42.8565084 24.9786085,42.6357784 C25.1845039,41.9737609 25.4394274,41.2770627 25.7398083,40.5621064 C26.6652492,38.3594041 27.8930847,36.2728993 29.4118851,34.37933 C34.1610932,28.4582394 40.9636345,25.3016244 49.5226109,25.3016244 C63.5862704,25.3016244 74.2862545,35.1159278 74.2862545,48.5229339 C74.2862545,53.3001406 72.9372831,57.475172 70.2244287,61.267986 C68.306475,63.9494573 66.080932,66.1059165 61.9604329,69.3816864 C61.5204927,69.7300046 61.5204927,69.7300046 60.7041715,70.3751511 C59.9861766,70.9429445 59.7243619,71.1502991 59.5394571,71.2979174 C58.1362016,72.4182027 57.1874331,73.2224409 56.4240916,73.9324244 C56.1287606,74.2277555 55.9995931,74.3732413 55.9435194,74.4537574 C55.9092088,74.5030239 55.8884114,74.6653864 55.8884114,77.1662823 L55.8884114,87.921929 C74.3909368,85.0788589 88.3700661,69.0708687 88.3700661,50 C88.3700661,28.8087976 71.1912024,11.6299339 50,11.6299339 C28.8087976,11.6299339 11.6299339,28.8087976 11.6299339,50 C11.6299339,60.2425777 15.6631035,69.926162 22.8674902,77.130958 L28.0922423,82.356007 L11.8510826,82.356007 L11.0037592,81.2965441 C3.85745125,72.3610562 0,61.4359213 0,50 C0,22.3857625 22.3857625,0 50,0 C77.6142375,0 100,22.3857625 100,50 C100,77.6142375 77.6142375,100 50,100 L44.0239922,100 L44.0239922,97.1778957 L44.0239936,91.0711825 L44.0381441,77.054688 C44.0381908,71.596664 44.3058228,70.0686352 45.9445434,67.8447895 Z M42.4958099,114.823717 C42.4958099,110.709617 45.8491773,107.356249 49.9632778,107.356249 C54.0773782,107.356249 57.4307456,110.709617 57.4307456,114.823717 C57.4307456,118.937817 54.0773782,122.291185 49.9632778,122.291185 C45.8491773,122.291185 42.4958099,118.937817 42.4958099,114.823717 Z" id="Oval"></path>
        </g>
    </g>
</svg>